Coordinates
version=1
nRows=9
nColumns=24
inDegrees=yes

Units are S.I. units (second, meters, Newtons, ...)
Angles are in degrees.

endheader
time	pelvis_tilt	pelvis_list	pelvis_rotation	pelvis_tx	pelvis_ty	pelvis_tz	hip_flexion_r	hip_adduction_r	hip_rotation_r	knee_angle_r	ankle_angle_r	subtalar_angle_r	mtp_angle_r	hip_flexion_l	hip_adduction_l	hip_rotation_l	knee_angle_l	ankle_angle_l	subtalar_angle_l	mtp_angle_l	lumbar_extension	lumbar_bending	lumbar_rotation
      4.32000000	    -15.94597626	     -3.58703849	     -0.13663561	     -1.21532387	      0.00642596	     -0.22820145	      7.80020742	      8.62984972	      6.48477279	     -6.00486732	      0.97181648	      1.00891105	      4.92642775	     44.28324336	      1.93666999	      4.07620401	    -52.97362423	     12.70155765	      9.86844493	    -66.39093286	     13.03950362	      2.87056273	      4.94132111
      4.32500000	    -15.94550267	     -3.44010401	     -0.42814623	     -1.20864921	      0.00639343	     -0.22792693	      7.12417277	      8.50611485	      6.70168424	     -5.64930404	      0.86972670	      1.05767290	      4.94056606	     44.54131108	      1.88638047	      4.00065312	    -51.28836079	     12.79721398	      9.75880525	    -66.42491321	     12.96073214	      2.81762282	      5.20399891
      4.33000000	    -15.90156768	     -3.28853610	     -0.74764083	     -1.20200134	      0.00631560	     -0.22760426	      6.41050595	      8.37874054	      6.97355203	     -5.30579590	      0.76342504	      1.07804202	      4.98889919	     44.71678750	      1.79501375	      3.86638958	    -49.53299220	     12.80435402	      9.60092625	    -66.44736323	     12.82533626	      2.76691374	      5.45371998
      4.33500000	    -15.96135491	     -3.13052469	     -1.01985589	     -1.19534783	      0.00599469	     -0.22732063	      5.85255303	      8.24336786	      7.16084219	     -5.04814999	      0.74968039	      1.08652254	      5.03068882	     44.95658598	      1.75163385	      3.85396895	    -47.69055189	     12.76613172	      9.49555270	    -66.44170370	     12.81088966	      2.68981882	      5.67815500
      4.34000000	    -15.88738761	     -2.96685839	     -1.34158474	     -1.18871855	      0.00574842	     -0.22698582	      5.14189579	      8.09828791	      7.45153529	     -4.76752788	      0.68619964	      1.06271813	      5.15602812	     45.01088923	      1.64420830	      3.73461917	    -45.78161935	     12.65184135	      9.36763545	    -66.37082228	     12.63863744	      2.62401177	      5.95953060
      4.34500000	    -16.00211464	     -2.80684281	     -1.60587199	     -1.18205621	      0.00515172	     -0.22671933	      4.68406578	      7.95960785	      7.62578924	     -4.58931506	      0.74588197	      1.06513807	      5.22119017	     45.23592158	      1.58027042	      3.71364086	    -43.80799525	     12.47965536	      9.24310038	    -66.34322677	     12.68717530	      2.54726484	      6.12001727
      4.35000000	    -16.04669586	     -2.62697729	     -1.91573730	     -1.17540596	      0.00455775	     -0.22639003	      4.16409984	      7.80186579	      7.84890649	     -4.43526385	      0.82569808	      1.07178998	      5.30785120	     45.33486306	      1.48086130	      3.63857260	    -41.76309205	     12.27918956	      9.13933283	    -66.29531611	     12.65291364	      2.45905542	      6.34673894
      4.35500000	    -15.99040888	     -2.45948771	     -2.23020192	     -1.16874718	      0.00398811	     -0.22606511	      3.52637657	      7.64831365	      8.09140661	     -4.25916843	      0.85600340	      1.05485340	      5.47748849	     45.28540695	      1.34845812	      3.53627810	    -39.66812077	     12.07458162	      9.09242874	    -66.13780545	     12.50635039	      2.38643164	      6.59385724
      4.36000000	    -16.10922407	     -2.29492964	     -2.49907975	     -1.16208760	      0.00308376	     -0.22576080	      3.12884803	      7.51215741	      8.25672403	     -4.19084149	      1.00473506	      1.01635375	      5.59354632	     45.39966189	      1.23937438	      3.51486862	    -37.53069087	     11.87199448	      9.11500256	    -66.06960570	     12.55632614	      2.30296277	      6.72513054
